<svg width="10" height="13" viewBox="0 0 10 13" fill="none" xmlns="http://www.w3.org/2000/svg">
<path d="M5 0.632812C2.25 0.632812 0 2.68261 0 5.18791C0 8.26261 4.375 11.7359 4.5625 11.9067C4.6875 11.9636 4.875 12.0206 5 12.0206C5.125 12.0206 5.3125 11.9636 5.4375 11.9067C5.625 11.7359 10 8.26261 10 5.18791C10 2.68261 7.75 0.632812 5 0.632812ZM5 10.711C3.6875 9.5722 1.25 7.12383 1.25 5.18791C1.25 3.30894 2.9375 1.77159 5 1.77159C7.0625 1.77159 8.75 3.30894 8.75 5.18791C8.75 7.06689 6.3125 9.5722 5 10.711ZM5 2.91036C3.625 2.91036 2.5 3.93526 2.5 5.18791C2.5 6.44057 3.625 7.46547 5 7.46547C6.375 7.46547 7.5 6.44057 7.5 5.18791C7.5 3.93526 6.375 2.91036 5 2.91036ZM5 6.32669C4.3125 6.32669 3.75 5.81424 3.75 5.18791C3.75 4.56159 4.3125 4.04914 5 4.04914C5.6875 4.04914 6.25 4.56159 6.25 5.18791C6.25 5.81424 5.6875 6.32669 5 6.32669Z" fill="#2F3250"/>
</svg>
