<svg width="12" height="12" viewBox="0 0 12 12" fill="none" xmlns="http://www.w3.org/2000/svg">
<path d="M1.27121 1.12087H3.92281L4.77749 3.14854L3.40449 4.01717C3.2402 4.12111 3.14152 4.2961 3.14152 4.48348C3.14301 4.53595 3.14152 4.48404 3.14152 4.48404L3.14152 4.48463L3.14152 4.48588L3.14154 4.48871L3.14163 4.49562C3.14171 4.50079 3.14186 4.50706 3.14211 4.51441C3.14261 4.5291 3.14351 4.5481 3.14513 4.57111C3.14836 4.61712 3.15445 4.67932 3.16591 4.75539C3.18879 4.90743 3.23322 5.11571 3.31946 5.36125C3.49264 5.85426 3.83291 6.49261 4.49562 7.1215C5.15833 7.7504 5.83099 8.07331 6.35051 8.23765C6.60925 8.3195 6.82873 8.36166 6.98895 8.38338C7.06911 8.39424 7.13465 8.40002 7.18313 8.40309C7.20738 8.40463 7.2274 8.40548 7.24288 8.40596C7.25062 8.40619 7.25723 8.40634 7.26268 8.40642L7.26996 8.4065L7.27294 8.40652L7.27426 8.40652L7.27488 8.40652C7.27488 8.40652 7.34081 8.40309 7.27547 8.40652C7.49916 8.40652 7.70365 8.28659 7.80369 8.09672L8.19919 7.34608L10.8189 7.76041V10.1814C9.57213 10.3525 6.20502 10.5212 3.55911 8.01023C0.913197 5.49932 1.09091 2.304 1.27121 1.12087ZM4.36614 4.7559L5.43266 4.08116C5.8974 3.78714 6.08158 3.22439 5.87414 2.73226L5.01947 0.704589C4.8401 0.279042 4.40578 0 3.92281 0H1.24035C0.703817 0 0.198777 0.353725 0.110698 0.906168C-0.0896871 2.163 -0.362438 5.87392 2.72392 8.80281C5.81028 11.7317 9.72071 11.4729 11.0451 11.2827C11.6273 11.1991 12 10.7198 12 10.2107V7.76041C12 7.21249 11.5826 6.74487 11.013 6.65479L8.39337 6.24046C7.8819 6.15956 7.37465 6.40469 7.14276 6.84481L6.93813 7.23318C6.87381 7.2182 6.80202 7.19898 6.72402 7.1743C6.3577 7.05843 5.84923 6.8209 5.33081 6.32893C4.81238 5.83696 4.56209 5.35443 4.43998 5.0068C4.40699 4.91286 4.38323 4.8284 4.36614 4.7559Z" fill="#2F3250"/>
</svg>
